HIERARCHY
ROOT hip
{
	OFFSET 0.000000 103.560692 0.219151
	CHANNELS 6 Xposition Yposition Zposition Zrotation Xrotation Yrotation
	JOINT pelvis
	{
		OFFSET 0.000000 1.955040 1.591925
		CHANNELS 3 Zrotation Xrotation Yrotation
		JOINT lThigh
		{
			OFFSET 8.341582 -7.629402 -0.646910
			CHANNELS 3 Zrotation Xrotation Yrotation
			JOINT lShin
			{
				OFFSET 2.185763 -45.093132 -0.705710
				CHANNELS 3 Zrotation Xrotation Yrotation
				JOINT lFoot
				{
					OFFSET 0.730976 -46.379768 -2.264282
					CHANNELS 3 Zrotation Xrotation Yrotation
					JOINT lToe
					{
						OFFSET 2.797621 -4.200020 10.742415
						CHANNELS 3 Zrotation Xrotation Yrotation
						JOINT lBigToe
						{
							OFFSET -2.433708 -0.269072 1.841711
							CHANNELS 3 Zrotation Xrotation Yrotation
							End Site
							{
								OFFSET -10.527346 -33.657166 -1.340707
							}
						}
					}
				}
			}
		}
		JOINT rThigh
		{
			OFFSET -8.341582 -7.629402 -0.646910
			CHANNELS 3 Zrotation Xrotation Yrotation
			JOINT rShin
			{
				OFFSET -2.185763 -45.093132 -0.705710
				CHANNELS 3 Zrotation Xrotation Yrotation
				JOINT rFoot
				{
					OFFSET -0.730976 -46.379768 -2.264282
					CHANNELS 3 Zrotation Xrotation Yrotation
					JOINT rToe
					{
						OFFSET -2.797621 -4.200019 10.742415
						CHANNELS 3 Zrotation Xrotation Yrotation
						JOINT rBigToe
						{
							OFFSET 2.433708 -0.269072 1.841711
							CHANNELS 3 Zrotation Xrotation Yrotation
							End Site
							{
								OFFSET 0.000000 24.298409 -0.425647
							}
						}
					}
				}
			}
		}
	}
	JOINT abdomen
	{
		OFFSET 0.000000 1.841293 -3.551421
		CHANNELS 3 Zrotation Xrotation Yrotation
		JOINT abdomen2
		{
			OFFSET 0.000000 5.439911 3.419600
			CHANNELS 3 Zrotation Xrotation Yrotation
			JOINT chest
			{
				OFFSET 0.000000 14.715073 -2.918270
				CHANNELS 3 Zrotation Xrotation Yrotation
				JOINT neck
				{
					OFFSET 0.000000 26.294655 -1.248052
					CHANNELS 3 Zrotation Xrotation Yrotation
					JOINT head
					{
						OFFSET 0.000000 8.807068 1.063695
						CHANNELS 3 Zrotation Xrotation Yrotation
						JOINT rEye
						{
							OFFSET -3.030866 6.632080 7.702687
							CHANNELS 3 Zrotation Xrotation Yrotation
							End Site
							{
								OFFSET 2.969555 -11.022598 8.626689
							}
						}
						JOINT lEye
						{
							OFFSET 3.030866 6.632080 7.702687
							CHANNELS 3 Zrotation Xrotation Yrotation
							End Site
							{
								OFFSET 0.000000 -15.881760 10.104412
							}
						}
						JOINT upperJaw
						{
							OFFSET 0.000000 1.922699 2.891887
							CHANNELS 3 Zrotation Xrotation Yrotation
							End Site
							{
								OFFSET 0.000000 -19.386169 10.230839
							}
						}
						JOINT lowerJaw
						{
							OFFSET 0.000000 1.857620 2.686640
							CHANNELS 3 Zrotation Xrotation Yrotation
							JOINT tongueBase
							{
								OFFSET 0.000000 -3.019135 2.746916
								CHANNELS 3 Zrotation Xrotation Yrotation
								JOINT tongue01
								{
									OFFSET 0.000000 0.664124 0.223355
									CHANNELS 3 Zrotation Xrotation Yrotation
									JOINT tongue02
									{
										OFFSET 0.000000 0.339737 0.715627
										CHANNELS 3 Zrotation Xrotation Yrotation
										JOINT tongue03
										{
											OFFSET 0.000000 0.123444 0.730634
											CHANNELS 3 Zrotation Xrotation Yrotation
											JOINT tongue04
											{
												OFFSET 0.000000 0.017212 0.737415
												CHANNELS 3 Zrotation Xrotation Yrotation
												JOINT tongue05
												{
													OFFSET 0.000000 -0.021011 0.632440
													CHANNELS 3 Zrotation Xrotation Yrotation
													JOINT tongueTip
													{
														OFFSET 0.000000 -0.014404 0.601796
														CHANNELS 3 Zrotation Xrotation Yrotation
														End Site
														{
															OFFSET -14.139406 -2.625778 0.472826
														}
													}
												}
											}
										}
									}
								}
							}
						}
					}
				}
				JOINT rCollar
				{
					OFFSET -2.109295 21.452370 3.768136
					CHANNELS 3 Zrotation Xrotation Yrotation
					JOINT rShldr
					{
						OFFSET -11.491621 -2.568573 -4.940255
						CHANNELS 3 Zrotation Xrotation Yrotation
						JOINT rForeArm
						{
							OFFSET -28.789030 -0.213806 2.098380
							CHANNELS 3 Zrotation Xrotation Yrotation
							JOINT rHand
							{
								OFFSET -22.260895 -0.869583 10.391586
								CHANNELS 3 Zrotation Xrotation Yrotation
								JOINT rThumb1
								{
									OFFSET -0.628075 0.137405 2.362409
									CHANNELS 3 Zrotation Xrotation Yrotation
									JOINT rThumb2
									{
										OFFSET 0.085205 -0.600235 3.826079
										CHANNELS 3 Zrotation Xrotation Yrotation
										JOINT rThumb3
										{
											OFFSET -1.255478 -0.879211 2.439162
											CHANNELS 3 Zrotation Xrotation Yrotation
											End Site
											{
												OFFSET -2.963715 0.538574 4.059553
											}
										}
									}
								}
								JOINT rCarpal1
								{
									OFFSET -0.855530 1.026047 1.621985
									CHANNELS 3 Zrotation Xrotation Yrotation
									JOINT rIndex1
									{
										OFFSET -3.951324 0.390884 3.873290
										CHANNELS 3 Zrotation Xrotation Yrotation
										JOINT rIndex2
										{
											OFFSET -3.071884 -1.259598 2.506104
											CHANNELS 3 Zrotation Xrotation Yrotation
											JOINT rIndex3
											{
												OFFSET -1.394112 -1.446640 1.203302
												CHANNELS 3 Zrotation Xrotation Yrotation
												End Site
												{
													OFFSET -3.392448 -1.258026 0.533405
												}
											}
										}
									}
									JOINT rMid1
									{
										OFFSET -5.422974 0.107910 2.002650
										CHANNELS 3 Zrotation Xrotation Yrotation
										JOINT rMid2
										{
											OFFSET -3.599533 -1.323776 2.090647
											CHANNELS 3 Zrotation Xrotation Yrotation
											JOINT rMid3
											{
												OFFSET -1.360191 -1.598495 1.068055
												CHANNELS 3 Zrotation Xrotation Yrotation
												End Site
												{
													OFFSET -4.087769 -0.460876 0.069540
												}
											}
										}
									}
								}
								JOINT rCarpal2
								{
									OFFSET -1.942749 0.556229 -0.337217
									CHANNELS 3 Zrotation Xrotation Yrotation
									JOINT rRing1
									{
										OFFSET -4.762787 -0.121170 2.349089
										CHANNELS 3 Zrotation Xrotation Yrotation
										JOINT rRing2
										{
											OFFSET -3.380348 -1.337097 1.356700
											CHANNELS 3 Zrotation Xrotation Yrotation
											JOINT rRing3
											{
												OFFSET -1.430290 -1.499649 0.914224
												CHANNELS 3 Zrotation Xrotation Yrotation
												End Site
												{
													OFFSET -1.783272 -2.215851 -0.391895
												}
											}
										}
									}
									JOINT rPinky1
									{
										OFFSET -5.232559 -1.313721 0.336493
										CHANNELS 3 Zrotation Xrotation Yrotation
										JOINT rPinky2
										{
											OFFSET -2.217606 -1.389603 0.800693
											CHANNELS 3 Zrotation Xrotation Yrotation
											JOINT rPinky3
											{
												OFFSET -0.886887 -1.462280 0.774199
												CHANNELS 3 Zrotation Xrotation Yrotation
												End Site
												{
													OFFSET 14.139406 -2.625778 0.472826
												}
											}
										}
									}
								}
							}
						}
					}
				}
				JOINT lCollar
				{
					OFFSET 2.109295 21.452370 3.768136
					CHANNELS 3 Zrotation Xrotation Yrotation
					JOINT lShldr
					{
						OFFSET 11.491621 -2.568573 -4.940255
						CHANNELS 3 Zrotation Xrotation Yrotation
						JOINT lForeArm
						{
							OFFSET 28.789030 -0.213806 2.098380
							CHANNELS 3 Zrotation Xrotation Yrotation
							JOINT lHand
							{
								OFFSET 22.260895 -0.869583 10.391586
								CHANNELS 3 Zrotation Xrotation Yrotation
								JOINT lThumb1
								{
									OFFSET 0.628075 0.137405 2.362409
									CHANNELS 3 Zrotation Xrotation Yrotation
									JOINT lThumb2
									{
										OFFSET -0.085205 -0.600235 3.826079
										CHANNELS 3 Zrotation Xrotation Yrotation
										JOINT lThumb3
										{
											OFFSET 1.255478 -0.879211 2.439162
											CHANNELS 3 Zrotation Xrotation Yrotation
											End Site
											{
												OFFSET 2.963715 0.538574 4.059553
											}
										}
									}
								}
								JOINT lCarpal1
								{
									OFFSET 0.855530 1.026047 1.621985
									CHANNELS 3 Zrotation Xrotation Yrotation
									JOINT lIndex1
									{
										OFFSET 3.951324 0.390884 3.873290
										CHANNELS 3 Zrotation Xrotation Yrotation
										JOINT lIndex2
										{
											OFFSET 3.071884 -1.259598 2.506104
											CHANNELS 3 Zrotation Xrotation Yrotation
											JOINT lIndex3
											{
												OFFSET 1.394112 -1.446640 1.203302
												CHANNELS 3 Zrotation Xrotation Yrotation
												End Site
												{
													OFFSET 3.392448 -1.258026 0.533405
												}
											}
										}
									}
									JOINT lMid1
									{
										OFFSET 5.422974 0.107910 2.002650
										CHANNELS 3 Zrotation Xrotation Yrotation
										JOINT lMid2
										{
											OFFSET 3.599533 -1.323776 2.090647
											CHANNELS 3 Zrotation Xrotation Yrotation
											JOINT lMid3
											{
												OFFSET 1.360191 -1.598495 1.068055
												CHANNELS 3 Zrotation Xrotation Yrotation
												End Site
												{
													OFFSET 4.087769 -0.460876 0.069540
												}
											}
										}
									}
								}
								JOINT lCarpal2
								{
									OFFSET 1.942749 0.556229 -0.337217
									CHANNELS 3 Zrotation Xrotation Yrotation
									JOINT lRing1
									{
										OFFSET 4.762787 -0.121170 2.349089
										CHANNELS 3 Zrotation Xrotation Yrotation
										JOINT lRing2
										{
											OFFSET 3.380348 -1.337097 1.356700
											CHANNELS 3 Zrotation Xrotation Yrotation
											JOINT lRing3
											{
												OFFSET 1.430290 -1.499649 0.914224
												CHANNELS 3 Zrotation Xrotation Yrotation
												End Site
												{
													OFFSET 1.783272 -2.215851 -0.391895
												}
											}
										}
									}
									JOINT lPinky1
									{
										OFFSET 5.232559 -1.313721 0.336493
										CHANNELS 3 Zrotation Xrotation Yrotation
										JOINT lPinky2
										{
											OFFSET 2.217606 -1.389603 0.800693
											CHANNELS 3 Zrotation Xrotation Yrotation
											JOINT lPinky3
											{
												OFFSET 0.886887 -1.462280 0.774199
												CHANNELS 3 Zrotation Xrotation Yrotation
												End Site
												{
													OFFSET -10.295957 -17.050110 17.461308
												}
											}
										}
									}
								}
							}
						}
					}
				}
				JOINT rPectoral
				{
					OFFSET -6.358840 6.360771 6.369920
					CHANNELS 3 Zrotation Xrotation Yrotation
					End Site
					{
						OFFSET 10.295957 -17.050110 17.461308
					}
				}
				JOINT lPectoral
				{
					OFFSET 6.358840 6.360771 6.369920
					CHANNELS 3 Zrotation Xrotation Yrotation
					End Site
					{
						OFFSET 10.295957 -17.050110 17.461308
					}
				}
			}
		}
	}
}
MOTION
Frames:	4
Frame Time:	0.0333333
9.062311 7.492236 148.847443 8.012729 3.561538 -26.241701 0.000000 0.000000 0.000000 -1.885091 -17.366394 13.024613 -0.595524 21.158920 -4.782351 -21.592957 13.181982 23.921780 14.088384 -32.375843 3.629668 0.000000 0.000000 0.000000 -25.623615 -14.610222 -18.130177 -2.993682 13.935754 -3.015041 8.171969 29.861031 26.500462 -16.223265 -36.086479 -4.776821 0.000000 0.000000 0.000000 -7.185555 1.116384 -6.414533 0.000000 0.000000 0.000000 -4.341655 -3.841970 17.380714 0.763554 0.252941 51.828217 1.213071 7.339447 -7.551765 0.000000 0.000000 0.000000 0.000000 0.000000 0.000000 0.000000 0.000000 0.000000 0.000000 0.000000 0.000000 0.000000 0.000000 0.000000 0.000000 0.000000 0.000000 0.000000 0.000000 0.000000 0.000000 0.000000 0.000000 0.000000 0.000000 0.000000 0.000000 0.000000 0.000000 0.000000 0.000000 0.000000 4.672212 -2.948264 -4.798823 71.453529 14.618525 -5.211462 7.646392 -1.433937 -19.123968 -18.205925 -12.373142 -4.177951 1.584482 -2.161906 -9.985799 -0.086357 -0.189240 0.161860 0.000000 0.000000 0.000000 0.000000 0.000000 0.000000 8.916133 11.922152 -7.492276 39.772343 29.311901 -2.405907 17.578705 15.593449 -0.563034 10.352164 7.725794 -1.354681 42.196732 23.682899 2.378608 18.864780 11.066481 3.494992 0.000000 0.000000 0.000000 15.107678 3.535892 7.955132 43.051300 16.144691 11.388004 11.007672 3.149574 4.494680 24.475357 1.977628 11.826230 43.904449 10.211356 15.141806 23.904707 6.297400 10.692533 -3.258198 -0.496592 6.764633 -74.090324 -0.846720 20.141836 8.736679 19.651398 3.386235 25.030458 -15.058395 -1.396037 -4.490182 10.988507 23.180565 0.079971 -0.175215 -0.149887 0.000000 0.000000 0.000000 0.000000 0.000000 0.000000 -7.673582 9.387773 4.114082 9.609000 -6.937755 2.541560 0.226285 -0.202284 0.024280 -6.066646 3.157262 -2.584269 -26.817369 15.138862 -3.610929 -28.169998 16.762413 -3.843074 0.000000 0.000000 0.000000 -3.377495 -1.695375 -8.372937 -28.191343 9.599070 -8.810814 -15.584958 4.724973 -6.199450 4.229870 -4.199782 -3.596859 -15.597140 2.203394 -6.129664 -4.119846 0.742365 -1.979470 0.158953 -0.007980 -0.466752 -0.218878 -0.011326 0.642762 
9.028714 7.494354 148.878708 8.014021 3.565928 -26.240496 0.000000 0.000000 0.000000 -1.864810 -17.340345 13.006696 -0.651116 21.148949 -4.747934 -21.570000 13.157355 23.910942 14.088384 -32.375843 3.629668 0.000000 0.000000 0.000000 -25.577295 -14.509752 -18.113205 -2.951583 13.744535 -3.024035 8.127788 29.958252 26.456566 -16.223536 -36.086933 -4.776965 0.000000 0.000000 0.000000 -7.182974 1.116968 -6.557012 0.000000 0.000000 0.000000 -4.331538 -3.839304 17.282021 0.763631 0.253165 51.384415 1.213118 7.339962 -7.552204 0.000000 0.000000 0.000000 0.000000 0.000000 0.000000 0.000000 0.000000 0.000000 0.000000 0.000000 0.000000 0.000000 0.000000 0.000000 0.000000 0.000000 0.000000 0.000000 0.000000 0.000000 0.000000 0.000000 0.000000 0.000000 0.000000 0.000000 0.000000 0.000000 0.000000 0.000000 0.000000 0.000000 4.675985 -2.949073 -4.780617 71.450409 14.619106 -5.210404 7.600309 -1.442062 -19.171829 -18.268602 -12.412036 -4.197757 1.584495 -2.161909 -9.985904 -0.086357 -0.189240 0.161860 0.000000 0.000000 0.000000 0.000000 0.000000 0.000000 8.916199 11.922227 -7.492258 39.772453 29.311972 -2.405949 17.578785 15.593508 -0.563055 10.352237 7.725841 -1.354660 42.196827 23.682953 2.378599 18.864855 11.066534 3.495007 0.000000 0.000000 0.000000 15.107788 3.535935 7.955155 43.051395 16.144745 11.388023 11.007763 3.149595 4.494707 24.475445 1.977643 11.826258 43.904530 10.211394 15.141833 23.904707 6.297400 10.692533 -3.258228 -0.496567 6.765320 -74.121361 -0.856463 20.140581 8.736569 19.651770 3.386812 25.117264 -15.118228 -1.336043 -4.490671 10.989655 23.182081 0.079971 -0.175215 -0.149887 0.000000 0.000000 0.000000 0.000000 0.000000 0.000000 -7.674485 9.388427 4.113422 9.611286 -6.939320 2.542279 0.227796 -0.203641 0.024453 -6.066955 3.157348 -2.584607 -26.818499 15.139512 -3.610925 -28.170519 16.762722 -3.843062 0.000000 0.000000 0.000000 -3.377770 -1.695463 -8.373464 -28.192137 9.599394 -8.811005 -15.584694 4.724871 -6.199367 4.230193 -4.199820 -3.596755 -15.596778 2.203325 -6.129526 -4.119573 0.742311 -1.979352 0.158371 -0.007949 -0.465043 -0.218900 -0.011327 0.642827 
8.967139 7.498319 148.938522 8.013827 3.571509 -26.238470 0.000000 0.000000 0.000000 -1.821581 -17.244471 13.057765 -0.664662 21.089756 -4.772396 -21.585981 13.114727 23.867741 14.088422 -32.375912 3.629689 0.000000 0.000000 0.000000 -25.512281 -14.381749 -18.098925 -2.917427 13.571588 -3.030035 8.075297 29.966902 26.442486 -16.224178 -36.088017 -4.777332 0.000000 0.000000 0.000000 -7.179856 1.119298 -6.705448 0.000000 0.000000 0.000000 -4.324759 -3.838645 17.215340 0.763879 0.253811 50.863297 1.213247 7.341517 -7.553547 0.000000 0.000000 0.000000 0.000000 0.000000 0.000000 0.000000 0.000000 0.000000 0.000000 0.000000 0.000000 0.000000 0.000000 0.000000 0.000000 0.000000 0.000000 0.000000 0.000000 0.000000 0.000000 0.000000 0.000000 0.000000 0.000000 0.000000 0.000000 0.000000 0.000000 0.000000 0.000000 0.000000 4.677732 -2.950200 -4.769197 71.441078 14.620890 -5.207208 7.570007 -1.452222 -19.204197 -18.318138 -12.442700 -4.213508 1.584488 -2.161928 -9.986196 -0.086357 -0.189240 0.161860 0.000000 0.000000 0.000000 0.000000 0.000000 0.000000 8.916422 11.922418 -7.492207 39.772816 29.312199 -2.406049 17.579107 15.593781 -0.563111 10.352498 7.725997 -1.354600 42.197258 23.683172 2.378537 18.865124 11.066699 3.495016 0.000000 0.000000 0.000000 15.108155 3.536077 7.955220 43.051781 16.144911 11.388068 11.008046 3.149694 4.494812 24.475725 1.977721 11.826331 43.904888 10.211522 15.141922 23.904970 6.297494 10.692627 -3.258332 -0.496495 6.767383 -74.144150 -0.862002 20.140957 8.736307 19.653133 3.388530 25.183102 -15.162603 -1.293634 -4.492208 10.993088 23.187057 0.079971 -0.175215 -0.149887 0.000000 0.000000 0.000000 0.000000 0.000000 0.000000 -7.677154 9.390349 4.111482 9.618332 -6.944141 2.544535 0.232376 -0.207744 0.024957 -6.067945 3.157623 -2.585605 -26.822067 15.141592 -3.610919 -28.172358 16.763845 -3.843033 0.000000 0.000000 0.000000 -3.378626 -1.695721 -8.375073 -28.194605 9.600433 -8.811564 -15.583922 4.724600 -6.199077 4.231165 -4.199913 -3.596395 -15.595784 2.203140 -6.129150 -4.118724 0.742144 -1.978951 0.158005 -0.007929 -0.463970 -0.218966 -0.011331 0.643022 
8.874801 7.504369 149.029633 8.011937 3.578337 -26.235308 0.000000 0.000000 0.000000 -1.761824 -17.175644 13.013783 -0.724572 21.079853 -4.717588 -21.576710 13.069503 23.814468 14.088422 -32.375912 3.629689 0.000000 0.000000 0.000000 -25.480379 -14.256992 -18.081793 -2.852539 13.396387 -3.081224 8.025661 30.020592 26.431513 -16.225395 -36.090000 -4.778029 0.000000 0.000000 0.000000 -7.176175 1.123539 -6.858860 0.000000 0.000000 0.000000 -4.321793 -3.840237 17.185198 0.764324 0.254947 50.261589 1.213504 7.344248 -7.555893 0.000000 0.000000 0.000000 0.000000 0.000000 0.000000 0.000000 0.000000 0.000000 0.000000 0.000000 0.000000 0.000000 0.000000 0.000000 0.000000 0.000000 0.000000 0.000000 0.000000 0.000000 0.000000 0.000000 0.000000 0.000000 0.000000 0.000000 0.000000 0.000000 0.000000 0.000000 0.000000 0.000000 4.677211 -2.951691 -4.765546 71.424812 14.624117 -5.201622 7.557788 -1.464650 -19.219019 -18.352379 -12.463811 -4.224501 1.584481 -2.161934 -9.986591 -0.086357 -0.189240 0.161860 0.000000 0.000000 0.000000 0.000000 0.000000 0.000000 8.916837 11.922798 -7.492113 39.773369 29.312523 -2.406227 17.579569 15.594172 -0.563189 10.352982 7.726295 -1.354476 42.197803 23.683464 2.378451 18.865635 11.067008 3.495071 0.000000 0.000000 0.000000 15.108708 3.536284 7.955317 43.052319 16.145155 11.388134 11.008659 3.149896 4.495053 24.476280 1.977864 11.826502 43.905426 10.211715 15.142056 23.905481 6.297667 10.692831 -3.258496 -0.496379 6.770988 -74.157494 -0.862760 20.143326 8.735821 19.655384 3.391537 25.224625 -15.189149 -1.271535 -4.494852 10.999102 23.195608 0.079971 -0.175215 -0.149887 0.000000 0.000000 0.000000 0.000000 0.000000 0.000000 -7.681761 9.393692 4.108102 9.630618 -6.952518 2.548462 0.240344 -0.214851 0.025826 -6.069613 3.158108 -2.587353 -26.828054 15.145048 -3.610914 -28.175528 16.765764 -3.842990 0.000000 0.000000 0.000000 -3.380095 -1.696177 -8.377829 -28.198910 9.602220 -8.812558 -15.582530 4.724098 -6.198582 4.232877 -4.200084 -3.595793 -15.594145 2.202810 -6.128527 -4.117253 0.741849 -1.978253 0.157888 -0.007923 -0.463626 -0.219082 -0.011338 0.643363 
